<?xml version="1.0" encoding="iso-8859-1"?>
<!-- Uploaded to: SVG Repo, www.svgrepo.com, Generator: SVG Repo Mixer Tools -->
<svg height="800px" width="800px" version="1.1" id="Layer_1" xmlns="http://www.w3.org/2000/svg" xmlns:xlink="http://www.w3.org/1999/xlink" 
	 viewBox="0 0 511.992 511.992" xml:space="preserve">
<path style="fill:#343A42;" d="M454.059,310.684c-22.75-19.125-27.188-63.375-31.844-110.28
	c-4.625-46.359-9.438-94.295-31.25-132.795C365.279,22.297,321.125,0.188,255.961,0C190.853,0.188,146.713,22.297,121.01,67.608
	c-21.812,38.5-26.609,86.436-31.218,132.795c-4.687,46.874-9.093,91.155-31.843,110.28l-9.25,7.781l8.859,8.219
	c1.188,1.094,12.406,10.969,42.608,20.467c39.25,12.344,91.687,18.625,155.826,18.625l0,0c64.133,0,116.568-6.281,155.817-18.625
	c30.188-9.498,41.438-19.373,42.625-20.467l8.875-8.219L454.059,310.684z"/>
<path style="fill:#DA4453;" d="M438.872,386.369l-1.812-0.531c-26.469-7.094-35.406-13.938-47.219-18.406
	c-41.779-15.938-52.654-27.404-55.436-32.842c-0.094-0.188-0.188-0.375-0.281-0.594l-0.344-48.531l-77.788-1.156l-77.795,1.156
	l-0.344,48.531c-0.094,0.219-0.156,0.406-0.266,0.594c-2.781,5.438-13.671,16.904-55.452,32.842
	c-11.781,4.469-20.734,11.312-47.218,18.406l-1.812,0.531c-24.093,7.969-40.296,30.312-40.296,55.531v70.092h223.184h223.191V441.9
	C479.184,416.682,462.966,394.338,438.872,386.369z"/>
<polygon style="fill:#DBAFA5;" points="316.937,317.09 191.173,313.793 188.947,385.088 228.5,399.76 266.664,402.416 
	308.5,396.619 320.5,355.744 "/>
<path style="fill:#FFCE54;" d="M255.773,384.369c-31.421,0-49.147-10.656-49.147-10.656l38.71,138.279h21.328l38.711-138.279
	C305.375,373.713,287.187,384.369,255.773,384.369z"/>
<g>
	<polygon style="fill:#ED5564;" points="376.559,363.041 334.03,321.402 309.906,328.824 266.664,511.992 345.015,427.088 
		332.561,406.15 	"/>
	<polygon style="fill:#ED5564;" points="135.432,363.041 177.939,321.387 202.095,328.824 245.336,511.992 166.986,427.088 
		179.431,406.15 	"/>
</g>
<path style="fill:#EAC6BB;" d="M393.559,191.06c0,89.374-85.216,171.622-137.567,171.622c-52.343,0-137.544-82.248-137.544-171.622
	c0-89.405,61.593-148.357,137.544-148.357C331.967,42.703,393.559,101.655,393.559,191.06z"/>
<path style="fill:#434A54;" d="M282,80.656c0.188,0.156,17.156,15.25,43.655,30.437c21.656,12.421,53.904,27.249,89.436,31.108
	c-4.5-26.609-11.438-52.202-24.125-74.592C365.279,22.297,321.125,0.188,255.961,0C190.853,0.188,282,80.656,282,80.656z"/>
<path style="fill:#656D78;" d="M118.448,191.06c0,4,0.18,8,0.508,11.984h274.088c0.328-3.984,0.516-7.984,0.516-11.984
	c0-3.156-0.094-6.281-0.25-9.343H118.682C118.534,184.779,118.448,187.904,118.448,191.06z"/>
<g>
	<path style="fill:#5D9CEC;" d="M250.25,192.372c0,20.624-2.609,37.343-53.334,37.343c-50.726,0-53.335-16.719-53.335-37.343
		c0-20.625,7.836-37.328,53.335-37.328C242.407,155.045,250.25,171.748,250.25,192.372z"/>
	<path style="fill:#5D9CEC;" d="M368.029,192.372c0,20.624-2.594,37.343-53.326,37.343c-50.719,0-53.328-16.719-53.328-37.343
		c0-20.625,7.836-37.328,53.328-37.328C360.202,155.045,368.029,171.748,368.029,192.372z"/>
</g>
<path style="fill:#656D78;" d="M188.9,181.529c31.546-15.984,63.108-38.219,93.85-66.046c37.781-34.218,64.655-68.077,77.093-84.842
	C334.217,10.204,299.875,0.11,255.961,0C190.853,0.188,146.713,22.297,121.01,67.608c-21.812,38.5-26.609,86.436-31.218,132.795
	c-0.375,3.625-0.734,7.218-1.093,10.78C121.698,208.466,155.338,198.529,188.9,181.529z"/>
</svg>